<svg width="40" height="60" viewBox="0 0 40 60" xmlns="http://www.w3.org/2000/svg">
  <!-- Cork -->
  <path d="M14 5h12v6H14z" fill="#8B5A2B" />
  <path d="M13 2h14v4H13z" fill="#A0522D" />
  
  <!-- Neck -->
  <path d="M14 11h12v8H14z" fill="#B0E0E6" fill-opacity="0.3" stroke="#88C0D0" stroke-width="1.5" />
  
  <!-- Bottle Body -->
  <path d="M20 18C10 18 4 25 4 38s6 20 16 20 16-7 16-20-6-20-16-20z" fill="#E5E9F0" fill-opacity="0.2" stroke="#88C0D0" stroke-width="2" />
  
  <!-- Liquid (Blue-Green Glow) -->
  <path d="M20 22C12 22 7 28 7 38s5 17 13 17 13-7 13-17-5-16-13-16z" fill="#43E8D8" />
  <path d="M20 22C12 22 7 28 7 38c0 5 2 10 6 13 3-8 14-8 17 0 3-3 3-8 3-13 0-10-5-16-13-16z" fill="#2DCCBB" />
  
  <!-- Highlights / Glow -->
  <ellipse cx="14" cy="30" rx="3" ry="6" fill="#FFFFFF" fill-opacity="0.4" transform="rotate(15 14 30)" />
  <circle cx="28" cy="45" r="1.5" fill="#FFFFFF" fill-opacity="0.6" />
  <circle cx="24" cy="48" r="1" fill="#FFFFFF" fill-opacity="0.6" />
</svg>
