<svg xmlns="http://www.w3.org/2000/svg" viewBox="0 0 64 64">
  <!-- Cultist - Hooded figure with staff -->
  <!-- Robe body -->
  <path d="M20 28 L16 58 L48 58 L44 28 Q32 24 20 28" fill="#2a1a2a"/>
  <!-- Hood -->
  <path d="M18 30 Q18 12 32 10 Q46 12 46 30 Q40 34 32 34 Q24 34 18 30" fill="#1a1520"/>
  <!-- Face shadow -->
  <ellipse cx="32" cy="26" rx="8" ry="6" fill="#0a0510"/>
  <!-- Glowing eyes -->
  <circle cx="28" cy="25" r="2" fill="#CC4444"/>
  <circle cx="36" cy="25" r="2" fill="#CC4444"/>
  <!-- Staff -->
  <rect x="50" y="20" width="3" height="38" fill="#4a3a2a"/>
  <!-- Staff orb -->
  <circle cx="51.5" cy="18" r="5" fill="#8B0000"/>
  <circle cx="50" cy="16" r="1.5" fill="#CC4444"/>
  <!-- Robe details -->
  <line x1="32" y1="34" x2="32" y2="58" stroke="#1a1520" stroke-width="1"/>
  <!-- Arms/sleeves -->
  <path d="M20 36 L12 44 L14 46 L22 40" fill="#2a1a2a"/>
  <path d="M44 36 L50 40" stroke="#2a1a2a" stroke-width="6" stroke-linecap="round"/>
</svg>