<svg xmlns="http://www.w3.org/2000/svg" viewBox="0 0 64 64">
  <!-- Red Louse - Bug with spiky shell -->
  <!-- Legs -->
  <line x1="16" y1="40" x2="8" y2="52" stroke="#4a2020" stroke-width="3"/>
  <line x1="24" y1="44" x2="18" y2="56" stroke="#4a2020" stroke-width="3"/>
  <line x1="40" y1="44" x2="46" y2="56" stroke="#4a2020" stroke-width="3"/>
  <line x1="48" y1="40" x2="56" y2="52" stroke="#4a2020" stroke-width="3"/>
  <!-- Body -->
  <ellipse cx="32" cy="36" rx="20" ry="14" fill="#8B0000"/>
  <!-- Shell segments -->
  <ellipse cx="32" cy="34" rx="18" ry="12" fill="#CC4444"/>
  <path d="M16 30 Q32 20 48 30" fill="#aa3333" stroke="#8B0000" stroke-width="1"/>
  <!-- Spikes -->
  <path d="M20 26 L18 16 L24 24" fill="#CC4444"/>
  <path d="M32 24 L32 12 L36 22" fill="#CC4444"/>
  <path d="M44 26 L46 16 L40 24" fill="#CC4444"/>
  <!-- Face -->
  <ellipse cx="32" cy="42" rx="8" ry="5" fill="#6a1a1a"/>
  <!-- Eyes -->
  <circle cx="28" cy="40" r="3" fill="#1a1520"/>
  <circle cx="36" cy="40" r="3" fill="#1a1520"/>
  <circle cx="29" cy="39" r="1" fill="#e8c44a"/>
  <circle cx="37" cy="39" r="1" fill="#e8c44a"/>
  <!-- Mandibles -->
  <path d="M28 46 L26 50 L30 48" fill="#4a2020"/>
  <path d="M36 46 L38 50 L34 48" fill="#4a2020"/>
</svg>