<svg xmlns="http://www.w3.org/2000/svg" viewBox="0 0 64 64">
  <!-- Medium Slime - Larger blob with more detail -->
  <!-- Slime puddle -->
  <ellipse cx="32" cy="58" rx="24" ry="5" fill="#1a4a4a"/>
  <!-- Dripping bits -->
  <ellipse cx="12" cy="52" rx="4" ry="3" fill="#2a7a6a"/>
  <ellipse cx="54" cy="50" rx="3" ry="2" fill="#2a7a6a"/>
  <!-- Main body -->
  <path d="M8 56 Q4 40 14 26 Q24 14 32 14 Q40 14 50 26 Q60 40 56 56 Q44 62 32 62 Q20 62 8 56" fill="#2a7a6a"/>
  <!-- Top blob -->
  <ellipse cx="38" cy="18" rx="6" ry="5" fill="#2a7a6a"/>
  <!-- Highlight -->
  <path d="M14 44 Q10 34 20 24 Q28 16 32 20 Q24 26 20 36 Q16 46 14 44" fill="#40a090" opacity="0.6"/>
  <!-- Secondary highlight -->
  <ellipse cx="44" cy="24" rx="4" ry="3" fill="#40a090" opacity="0.4"/>
  <!-- Face -->
  <ellipse cx="22" cy="38" rx="5" ry="6" fill="#1a1520"/>
  <ellipse cx="42" cy="38" rx="5" ry="6" fill="#1a1520"/>
  <!-- Pupils -->
  <ellipse cx="24" cy="40" rx="2" ry="2.5" fill="#e8c44a"/>
  <ellipse cx="44" cy="40" rx="2" ry="2.5" fill="#e8c44a"/>
  <!-- Grin -->
  <path d="M24 50 Q32 58 40 50" stroke="#1a1520" stroke-width="3" fill="none"/>
  <path d="M26 52 L28 50 M36 50 L38 52" stroke="#1a1520" stroke-width="2"/>
</svg>